<svg xmlns="http://www.w3.org/2000/svg" viewBox="0 0 64 64" shape-rendering="geometricPrecision" text-rendering="geometricPrecision" image-rendering="optimizeQuality" fill-rule="evenodd" clip-rule="evenodd" width="64" height="64"><path d="M63.347 19.204s-0.625 -4.411 -2.548 -6.348c-2.437 -2.548 -5.165 -2.564 -6.412 -2.712 -8.949 -0.652 -22.39 -0.652 -22.39 -0.652h-0.023s-13.435 0 -22.389 0.652c-1.252 0.152 -3.977 0.163 -6.412 2.712C1.248 14.792 0.637 19.204 0.637 19.204S0 24.381 0 29.568v4.851c0 5.177 0.636 10.364 0.636 10.364s0.625 4.411 2.536 6.352c2.436 2.548 5.636 2.465 7.065 2.737 5.124 0.489 21.764 0.636 21.764 0.636s13.452 -0.024 22.402 -0.664c1.252 -0.148 3.976 -0.163 6.412 -2.712 1.924 -1.937 2.548 -6.353 2.548 -6.353s0.637 -5.177 0.637 -10.364v-4.851c-0.013 -5.177 -0.65 -10.364 -0.65 -10.364l-0.003 0.003 0 0zM25.368 40.304v-17.987l17.289 9.023z" fill="red"/></svg>